<svg xmlns="http://www.w3.org/2000/svg" width="256" height="256" viewBox="0 0 100 100"><rect width="100" height="100" rx="20" fill="#7ed321"></rect><path fill="#fff" d="M38.16 55.31L43.04 55.31L43.04 61.05L16.77 61.05L16.77 55.31L31.86 55.31L31.86 53.62Q31.86 47.51 29.55 44.90Q27.25 42.29 24.06 42.29L24.06 42.29L19.31 42.29L18.84 37.36Q20.30 37.03 22.15 36.75Q24.01 36.46 25.56 36.46L25.56 36.46Q29.32 36.46 32.16 38.32Q35.01 40.18 36.58 43.89Q38.16 47.60 38.16 53.01L38.16 53.01L38.16 55.31ZM43.04 61.05L43.04 61.05ZM50.05 37.55L56.34 37.55L56.34 61.05L43.04 61.05L43.04 55.31L50.05 55.31L50.05 37.55ZM47.27 33.17L47.27 27.30L52.11 27.30L52.11 33.17L47.27 33.17ZM54.42 33.17L54.42 27.30L59.26 27.30L59.26 33.17L54.42 33.17ZM72.33 36.61Q75.05 36.61 78.11 36.96Q81.16 37.31 83.23 37.78L83.23 37.78L83.23 56.91Q83.23 60.76 82.64 64.12Q82.05 67.48 79.87 70.09Q77.68 72.70 73.31 72.70L73.31 72.70Q70.77 72.70 65.13 71.81L65.13 71.81L65.13 66.12Q70.77 66.97 72.75 66.97L72.75 66.97Q74.25 66.97 75.10 66.45Q75.94 65.93 76.34 64.66Q76.74 63.40 76.74 61.05L76.74 61.05L71.29 61.05Q61.56 61.05 61.56 50.05L61.56 50.05Q61.56 44.45 62.81 41.54Q64.05 38.63 66.33 37.62Q68.61 36.61 72.33 36.61L72.33 36.61ZM67.86 49.67Q67.86 52.07 68.89 53.69Q69.93 55.31 73.03 55.31L73.03 55.31L76.93 55.31L76.93 42.57Q75.14 42.34 73.50 42.34L73.50 42.34Q71.53 42.34 70.35 42.88Q69.18 43.42 68.52 44.99Q67.86 46.57 67.86 49.67L67.86 49.67Z"></path></svg>